<svg xmlns="http://www.w3.org/2000/svg" width="24" height="24" style="pointer-events:none;display:block;width:100%;height:100%"><path d="M10 14.65v-5.3L15 12l-5 2.65zm7.77-4.33-1.2-.5L18 9.06c1.84-.96 2.53-3.23 1.56-5.06s-3.24-2.53-5.07-1.56L6 6.94a3.744 3.744 0 0 0-2 3.49c.07 1.42.93 2.67 2.22 3.25.03.01 1.2.5 1.2.5L6 14.93a3.751 3.751 0 0 0 3.51 6.63l8.5-4.5A3.736 3.736 0 0 0 20 13.57a3.762 3.762 0 0 0-2.23-3.25zm-.23 5.86-8.5 4.5c-1.34.71-3.01.2-3.72-1.14-.71-1.34-.2-3.01 1.14-3.72l2.04-1.08v-1.21l-.69-.28-1.11-.46A2.751 2.751 0 0 1 5 10.38c-.05-1.06.52-2.06 1.46-2.56l8.5-4.5c1.34-.71 3.01-.2 3.72 1.14.71 1.34.2 3.01-1.14 3.72L15.5 9.26v1.21l1.8.74c.99.41 1.65 1.35 1.7 2.41.05 1.06-.52 2.06-1.46 2.56z"/></svg>